<svg width="125" height="20" viewBox="0 0 125 20" fill="none" xmlns="http://www.w3.org/2000/svg">
<path d="M10.3748 0L12.62 6.90983H19.8854L14.0075 11.1803L16.2527 18.0902L10.3748 13.8197L4.49696 18.0902L6.7421 11.1803L0.864252 6.90983H8.12968L10.3748 0Z" fill="#F7B103"/>
<path d="M36.3748 0L38.62 6.90983H45.8854L40.0075 11.1803L42.2527 18.0902L36.3748 13.8197L30.497 18.0902L32.7421 11.1803L26.8643 6.90983H34.1297L36.3748 0Z" fill="#F7B103"/>
<path d="M62.3748 0L64.62 6.90983H71.8854L66.0075 11.1803L68.2527 18.0902L62.3748 13.8197L56.497 18.0902L58.7421 11.1803L52.8643 6.90983H60.1297L62.3748 0Z" fill="#F7B103"/>
<path d="M88.3748 0L90.62 6.90983H97.8854L92.0075 11.1803L94.2527 18.0902L88.3748 13.8197L82.497 18.0902L84.7421 11.1803L78.8643 6.90983H86.1297L88.3748 0Z" fill="#F7B103"/>
<path d="M114.375 0L116.62 6.90983H123.885L118.008 11.1803L120.253 18.0902L114.375 13.8197L108.497 18.0902L110.742 11.1803L104.864 6.90983H112.13L114.375 0Z" fill="#F7B103"/>
</svg>
